<svg xmlns="http://www.w3.org/2000/svg" width="128" height="128">
  <path fill="#FAE290" fill-rule="evenodd"
    d="M19 71.703h5.649v-4.992h7.59v4.992h5.648V57.297H32.24v4.51h-7.59v-4.51H19zm23.874-7.538q0 4.017 3.31 5.926 3.31 1.91 8.186 1.909 4.863 0 8.185-1.909t3.323-5.926v.477q0-3.872-3.324-5.757Q59.232 57 54.37 57q-4.873 0-8.185 1.885-3.31 1.884-3.311 5.757zm5.934.062v.392q0-1.873 1.48-2.79 1.48-.92 4.1-.87 2.571.047 4.07.917 1.497.87 1.497 2.752v-.372q0 2.007-1.498 2.988t-4.068.933q-2.61-.049-4.096-.98-1.485-.934-1.485-2.97m22.056 7.476H86.12V67.08h-9.607v-9.783h-5.649zm20.02 0h10.38q3.759 0 6.247-1.907 2.49-1.908 2.489-5.573v.38q0-3.713-2.46-5.51t-6.277-1.796h-10.38zm5.46-3.906v-6.4h4.221q1.629 0 2.692.73t1.063 2.522v-.375q0 1.869-1.138 2.696t-2.617.827z" />
</svg>
