<svg height="128" viewBox="0 0 80 128" width="80" xmlns="http://www.w3.org/2000/svg"><path d="m18.974359 51c13.6204767 0 19.9743589 4.2428571 19.9743589 13.5s-6.3538822 13.5-19.9743589 13.5c-13.6204768 0-19.974359-4.2428571-19.974359-13.5s6.3538822-13.5 19.974359-13.5zm0 7.6441558c-4.9848137 0-7.7229508 2.0688312-7.7229508 5.8558442s2.7381371 5.8558442 7.7229508 5.8558442c4.9848136 0 7.7229507-2.0688312 7.7229507-5.8558442s-2.7381371-5.8558442-7.7229507-5.8558442zm62.025641 18.3173827-6.1401255-8.6916613v-.3490627c3.231645-.767938 5.4937965-2.6528766 5.4937965-7.1906917 0-5.6548158-2.8725734-8.6916613-10.9875931-8.6916613h-26.2122317v24.923077h11.7775507v-6.3529412h8.2945555l4.1652314 6.3529412zm-16.3018537-12.9502263h-9.7667494v-4.1189399h9.7667494c1.6158225 0 2.5135016.6632192 2.5135016 2.05947s-.8976791 2.0594699-2.5135016 2.0594699z" fill="#878787" transform="matrix(0 -1 1 0 -24.5 104.5)"/></svg>